<svg width="664" height="428" viewBox="0 0 664 428" fill="none" xmlns="http://www.w3.org/2000/svg">
<path d="M2.7641 211.681C2.748 248.986 17.9479 285.411 46.8502 317.517L0 427.212L175.056 397.778C223.475 414.68 277.724 423.537 332.851 423.54H332.996C514.984 423.54 663.127 328.574 663.205 211.848C663.239 155.286 628.922 102.099 566.571 62.0843C504.231 22.0727 421.322 0.025814 332.983 0C150.974 0 2.84193 94.9609 2.76679 211.681" fill="url(#paint0_linear_1036_2)"/>
<path d="M247.548 119.943C241.145 110.816 234.407 110.632 228.318 110.472C223.331 110.335 217.631 110.345 211.937 110.345C206.237 110.345 196.976 111.72 189.148 117.201C181.312 122.687 159.231 135.945 159.231 162.911C159.231 189.876 189.859 215.938 194.129 219.598C198.404 223.252 253.256 280.359 340.129 302.328C412.329 320.586 427.022 316.955 442.691 316.039C458.363 315.127 493.261 302.784 500.38 289.986C507.505 277.189 507.505 266.22 505.369 263.928C503.233 261.644 497.533 260.272 488.986 257.533C480.438 254.793 438.416 241.531 430.583 239.702C422.747 237.874 417.049 236.962 411.349 242.45C405.649 247.93 389.282 260.272 384.293 263.928C379.31 267.591 374.321 268.047 365.777 265.306C357.224 262.556 329.698 256.775 297.042 238.105C271.633 223.577 254.48 205.636 249.494 200.148C244.508 194.669 248.96 191.698 253.245 188.967C257.086 186.512 261.795 182.567 266.073 179.368C270.335 176.167 271.757 173.883 274.607 170.228C277.459 166.569 276.032 163.368 273.898 160.627C271.757 157.886 255.148 130.779 247.548 119.943Z" fill="white"/>
<defs>
<linearGradient id="paint0_linear_1036_2" x1="331.602" y1="427.212" x2="331.602" y2="0" gradientUnits="userSpaceOnUse">
<stop stop-color="#1FAF38"/>
<stop offset="1" stop-color="#60D669"/>
</linearGradient>
</defs>
</svg>
